<svg xmlns="http://www.w3.org/2000/svg" viewBox="0 0 512 511.9">
<defs>
<style>
    path {
        fill: #000000;
    }
    @media (prefers-color-scheme: dark) {
        path {
            fill: #ffffff;
        }
    }
</style>
</defs>
<path d="M510.57,165.1c-1.28-25.44-35.84-54.08-43.2-73.92C444,29.42,423.53-3.54,349.46.3,261.3,4.78,168.66,67,151.86,150.22A187.58,187.58,0,0,0,87.54,167c-52,29.28-85,92.64-87.2,157.92-2.72,76,9.76,131.35,76.16,160.79a384.58,384.58,0,0,0,98.08,26.08c84.64,3,152.8-73.43,173.6-157.43,62.08-5.76,120.63-39,147.83-89.28A191.21,191.21,0,0,0,510.57,165.1ZM331.7,380.3A230.7,230.7,0,0,1,294.58,444,150.14,150.14,0,0,1,174.9,504a400.57,400.57,0,0,1-95.2-25.44,107.24,107.24,0,0,1-59.84-58.71A228.64,228.64,0,0,1,8.34,325.26c2.24-64.8,34.88-124.16,83.2-151.36a177,177,0,0,1,59-15.36A134.34,134.34,0,0,0,149.46,184a398.15,398.15,0,0,0,27.84,97.6C208,347.5,263.54,359,339.38,355h.48A232.65,232.65,0,0,1,331.7,380.3Z"/>
</svg>