<svg xmlns="http://www.w3.org/2000/svg" viewBox="0 0 116.93 40.27"><defs><style>.cls-1{fill:#fff;}</style></defs><g id="レイヤー_2" data-name="レイヤー 2"><g id="レイヤー_1-2" data-name="レイヤー 1"><g id="グループ_6" data-name="グループ 6"><g id="グループ_3" data-name="グループ 3"><g id="パス_66" data-name="パス 66"><path d="M19.75,8.33a10.13,10.13,0,0,1,.44-4.2,4.84,4.84,0,0,1,2.63-2.67A17,17,0,0,1,27,.26,6.69,6.69,0,0,1,32.4,2.83a10.18,10.18,0,0,1,2.42,6A4.27,4.27,0,0,1,34,12a7.49,7.49,0,0,1-3,1.68,5.41,5.41,0,0,0-1.25.82,4.22,4.22,0,0,1-1.92,1.06,8.14,8.14,0,0,1-4.25-.6A8.05,8.05,0,0,1,19.75,8.33Z"/><path class="cls-1" d="M34.57,8.8A10.06,10.06,0,0,0,32.21,3,6.42,6.42,0,0,0,27,.51a17.5,17.5,0,0,0-4.1,1.17C20.26,2.92,19.83,5.14,20,8.32a7.8,7.8,0,0,0,3.69,6.46,7.91,7.91,0,0,0,4.12.57,4.14,4.14,0,0,0,1.78-1,5.31,5.31,0,0,1,1.32-.85,7.17,7.17,0,0,0,2.87-1.62,4,4,0,0,0,.79-3.07m.5,0c.17,3.25-1.28,4.15-4,5.17-.87.33-2.13,1.84-3.25,1.9a8.37,8.37,0,0,1-4.38-.63A8.32,8.32,0,0,1,19.5,8.34c-.17-3.32.33-5.77,3.22-7.11A17.06,17.06,0,0,1,27,0C31.38-.22,34.84,4.4,35.07,8.78Z"/></g><g id="パス_93" data-name="パス 93"><path class="cls-1" d="M68,15.46a10.07,10.07,0,0,1-4.18-.6,4.77,4.77,0,0,1-2.58-2.72,17.36,17.36,0,0,1-1-4.23A6.66,6.66,0,0,1,62.9,2.62a10.13,10.13,0,0,1,6-2.21,4.28,4.28,0,0,1,3.22,1,7.35,7.35,0,0,1,1.57,3,5.9,5.9,0,0,0,.78,1.27,4.28,4.28,0,0,1,1,2,8.13,8.13,0,0,1-.75,4.23A8.05,8.05,0,0,1,68,15.46Z"/><path d="M69,.66a10.05,10.05,0,0,0-5.89,2.15A6.41,6.41,0,0,0,60.39,7.9a16.86,16.86,0,0,0,1,4.14c1.14,2.71,3.34,3.22,6.53,3.17a7.81,7.81,0,0,0,6.58-3.46,7.82,7.82,0,0,0,.72-4.1,4.13,4.13,0,0,0-.94-1.82,5.31,5.31,0,0,1-.81-1.34A7.22,7.22,0,0,0,72,1.55a4,4,0,0,0-3-.89m0-.5c3.26,0,4.1,1.42,5,4.17.3.88,1.76,2.19,1.78,3.31A8.31,8.31,0,0,1,75,12a8.34,8.34,0,0,1-7,3.71c-3.33,0-5.75-.54-7-3.47a17.38,17.38,0,0,1-1.07-4.33C59.81,3.53,64.56.24,68.94.16Z"/></g><g id="パス_68" data-name="パス 68"><path class="cls-1" d="M7.39,15.4h0c-.61,0-1.48-1.76-2.4-3.7a22.82,22.82,0,0,1-.93-2.2A22.07,22.07,0,0,0,2.89,6.92c-.69-1.35-.9-1.8-1-2.14s-.22-.47-.53-1A12.87,12.87,0,0,1,.43,1.9C.14,1.13.28,1,.31,1A1,1,0,0,1,.77.89c.39,0,1,.08,1.63.17a33.87,33.87,0,0,0,3.81.34h.67c2.33,0,4.23.16,5.37.23l.63,0H13c.28,0,.64,0,1.06,0s1.11,0,1.66,0c1.42,0,1.84.27,2,.47.23.45-.91,1.93-1.92,3.24A37.58,37.58,0,0,0,13.52,8.5a23.09,23.09,0,0,1-2.73,3.81l-.58.68C9,14.46,7.87,15.41,7.39,15.4Z"/><path d="M7.39,15.15c.26,0,1.21-.62,2.63-2.32l.58-.69a22.45,22.45,0,0,0,2.71-3.77,36.45,36.45,0,0,1,2.28-3.19c.57-.74,1.11-1.44,1.47-2s.43-.94.43-1-.26-.31-1.73-.33c-.55,0-1.13,0-1.65,0s-.79,0-1.07,0h-.18l-.63,0c-1.13-.07-3-.19-5.36-.23H6.33a33.89,33.89,0,0,1-4-.34c-.66-.09-1.23-.16-1.61-.17H.5A2.58,2.58,0,0,0,.74,2a17,17,0,0,0,.8,1.6,11.09,11.09,0,0,1,.53,1.06c.15.33.35.78,1,2.13A20.1,20.1,0,0,1,4.28,9.42c.19.52.4,1.06.92,2.17a27.74,27.74,0,0,0,1.46,2.79c.48.75.71.77.73.77m0,.5h0c-.71,0-1.46-1.37-2.63-3.85S4,9.57,2.67,7s-.9-2-1.57-3.18S-.34,1.13.16.75s3,.35,6.06.4h.11c3.09,0,5.45.21,6.56.28.58,0,1.78-.08,2.87-.06s1.93.14,2.17.6c.5,1-2.45,3.8-4.2,6.67a25.9,25.9,0,0,1-3.33,4.51C9.41,14.34,8.09,15.67,7.38,15.65Z"/></g><g id="パス_96" data-name="パス 96"><path d="M58.16,15.2h0c-.26.55-2.21.64-4.36.69-1.24,0-1.82,0-2.39,0a20.82,20.82,0,0,0-2.82,0c-1.52.09-2,.09-2.38.09s-.52,0-1.17.05a14.25,14.25,0,0,1-2,.07c-.82,0-.91-.24-.92-.28a1,1,0,0,1,.14-.44A13.9,13.9,0,0,1,43,13.91a33.08,33.08,0,0,0,1.85-3.34l0-.11c.08-.16.16-.33.23-.49,1-2.12,1.87-3.8,2.4-4.81l.29-.56a1,1,0,0,0,.08-.15h0c.11-.25.25-.59.4-1s.41-1,.64-1.53C49.58.65,50,.37,50.21.35c.5,0,1.39,1.62,2.18,3.08a36.27,36.27,0,0,0,2,3.36,22.82,22.82,0,0,1,2.36,4c.12.26.24.52.39.81C58,13.36,58.37,14.76,58.16,15.2Z"/><path class="cls-1" d="M57.94,15.1c.11-.24-.08-1.36-1.06-3.35-.14-.29-.27-.56-.38-.81a23,23,0,0,0-2.35-4,34.68,34.68,0,0,1-2-3.39c-.45-.82-.87-1.6-1.24-2.15-.47-.71-.68-.78-.71-.79s-.39.11-1,1.45c-.23.49-.45,1-.64,1.51s-.29.74-.41,1l-.07.15c-.09.16-.18.35-.3.56-.52,1-1.41,2.69-2.39,4.8l-.23.5a34.85,34.85,0,0,1-1.92,3.48,15.88,15.88,0,0,0-.81,1.39,1.61,1.61,0,0,0-.09.25,2.3,2.3,0,0,0,.88.13A15.61,15.61,0,0,0,45,15.74c.66-.05.87-.05,1.19-.05s.85,0,2.37-.09a21.29,21.29,0,0,1,2.85,0c.56,0,1.13.07,2.36,0a27,27,0,0,0,3.14-.19c.88-.14,1-.33,1-.35m.45.21h0c-.31.64-1.85.77-4.59.83s-2.35-.19-5.2,0-2.15,0-3.54.14-3.07.21-3.22-.41,1.54-2.61,2.83-5.36l0-.11C46,7.55,47.13,5.47,47.64,4.48c.27-.51.65-1.65,1.12-2.64S49.67.13,50.19.1c1.07-.06,2.47,3.78,4.38,6.55a26.16,26.16,0,0,1,2.76,4.88C58,12.92,58.69,14.67,58.39,15.31Z"/></g><g id="パス_95" data-name="パス 95"><path class="cls-1" d="M44.68,2.82h0c.61,0,1.57,1.68,2.59,3.58.59,1.09.82,1.62,1,2.14a19,19,0,0,0,1.28,2.51c.77,1.32,1,1.76,1.16,2.08a8.92,8.92,0,0,0,.58,1,15.28,15.28,0,0,1,1,1.79c.33.75.2.92.17.94s-.1.07-.45.09-1,0-1.64-.09a34,34,0,0,0-3.83-.14h-.12l-.54,0c-2.33.08-4.24.06-5.38.05h-.79c-.28,0-.64.05-1.06.08S37.59,17,37,17c-1.42.05-1.86-.17-2-.37-.26-.44.81-2,1.75-3.34.69-1,1.48-2.15,2.1-3.28a22.79,22.79,0,0,1,2.52-3.94c.18-.22.36-.45.55-.71C43.14,3.84,44.2,2.83,44.68,2.82Z"/><path d="M44.69,3.07c-.26,0-1.17.68-2.5,2.46l-.55.71a23.51,23.51,0,0,0-2.5,3.9A36.07,36.07,0,0,1,37,13.45c-.53.77-1,1.5-1.36,2.08-.41.74-.38,1-.37,1s.26.29,1.74.24c.55,0,1.13-.08,1.64-.12s.78-.08,1.07-.09h.81c1.13,0,3,0,5.36-.05l.54,0a34.13,34.13,0,0,1,4,.13c.67.05,1.24.1,1.62.09l.26,0a2.3,2.3,0,0,0-.28-.85,16.36,16.36,0,0,0-.89-1.56c-.35-.56-.44-.75-.59-1s-.38-.76-1.14-2.07a19.67,19.67,0,0,1-1.3-2.54c-.23-.51-.45-1-1-2.13a26.74,26.74,0,0,0-1.6-2.71c-.52-.72-.74-.73-.77-.73m0-.5h0c.71,0,1.52,1.29,2.82,3.71s.9,2.18,2.33,4.65,1,1.91,1.73,3.09,1.58,2.65,1.1,3.06-3-.19-6.07-.09h-.12c-3.08.12-5.45.07-6.56.06-.57,0-1.77.17-2.86.21s-1.94-.05-2.2-.49c-.54-.93,2.25-3.92,3.85-6.87a25.87,25.87,0,0,1,3.09-4.68C42.72,4,44,2.59,44.68,2.57Z"/></g><g id="パス_99" data-name="パス 99"><path d="M99.81,15.71h0c-.35-.5.55-2.24,1.58-4.13.6-1.08.92-1.57,1.23-2A20,20,0,0,0,104,7.09c.68-1.35.93-1.78,1.11-2.1a10.66,10.66,0,0,0,.54-1,15.94,15.94,0,0,1,1-1.8c.45-.69.67-.67.7-.65s.11,0,.32.33.5.83.82,1.42a32.23,32.23,0,0,0,2,3.28l.07.1.31.44c1.34,1.92,2.36,3.53,3,4.49l.34.53.09.13h0c.16.22.39.51.65.84s.68.86,1,1.32c.82,1.16.87,1.65.77,1.85-.23.45-2.1.4-3.75.35-1.23,0-2.62-.07-3.91,0a23.63,23.63,0,0,1-4.68,0l-.89-.07C101.51,16.45,100.09,16.11,99.81,15.71Z"/><path class="cls-1" d="M100,15.57c.15.22,1.22.61,3.43.76l.9.07a23.12,23.12,0,0,0,4.63,0c1.3-.1,2.7-.06,3.93,0,.94,0,1.82.05,2.49,0,.84-.05,1-.2,1-.23s.1-.38-.75-1.59c-.32-.45-.68-.91-1-1.31s-.49-.62-.65-.85a1.3,1.3,0,0,1-.1-.15l-.34-.53c-.61-1-1.63-2.56-3-4.47l-.32-.45a32.27,32.27,0,0,1-2-3.4c-.32-.58-.59-1.09-.81-1.4a1.66,1.66,0,0,0-.16-.2,2.2,2.2,0,0,0-.56.7,14.84,14.84,0,0,0-.82,1.59,11.73,11.73,0,0,1-.55,1.05c-.18.32-.43.75-1.11,2.1a21.24,21.24,0,0,1-1.42,2.47c-.31.47-.63,1-1.22,2a27,27,0,0,0-1.4,2.82c-.32.83-.21,1-.2,1.05m-.41.29h0c-.4-.58.26-2,1.57-4.39S102.52,9.52,103.8,7s1.06-1.88,1.65-3.14,1.36-2.76,2-2.58,1.49,2.64,3.23,5.13l.07.09c1.79,2.53,3,4.54,3.63,5.47.31.49,1.11,1.4,1.74,2.29s1,1.65.78,2.11c-.48,1-4.51.25-7.86.52a25.83,25.83,0,0,1-5.6,0C101.85,16.73,100,16.44,99.6,15.86Z"/></g><g id="パス_104" data-name="パス 104"><path class="cls-1" d="M92,14.73a.38.38,0,0,1-.23-.43,4.5,4.5,0,0,1,.61-1.39c.23-.41.51-.93.85-1.62.23-.43.46-.9.71-1.39.39-.79.8-1.61,1.27-2.42.93-1.61,1.47-2.41,2.15-3.43.21-.32.44-.65.69-1l.74-1.14c.34-.54.37-.6.54-.7s.53,0,1.45.51c.64.37.71.47.67.68A9.35,9.35,0,0,1,100.54,4c-.47.76-1.11,1.81-1.94,3.23-1,1.67-1.47,2.46-1.9,3.16S96,11.53,95.42,12.5s-.94,1.76-1.17,2.24a3.3,3.3,0,0,1-.38.7c-.13,0-.46.05-1.18-.37l-.42-.21Z"/><path d="M100.67,1.9a2.85,2.85,0,0,0-1.22-.5c-.1.06-.13.1-.44.6l-.74,1.15-.69,1c-.68,1-1.22,1.81-2.15,3.42-.46.79-.86,1.61-1.26,2.4-.24.49-.47,1-.71,1.4-.33.68-.62,1.21-.85,1.62a4.34,4.34,0,0,0-.58,1.3.29.29,0,0,0,0,.11l.11.07.24.13.43.22a2.09,2.09,0,0,0,.93.35c.06-.11.17-.34.28-.57a24.76,24.76,0,0,1,1.19-2.26c.56-1,.89-1.51,1.27-2.12s.93-1.49,1.91-3.15c.83-1.43,1.47-2.48,1.94-3.24a15,15,0,0,0,.89-1.55v0a2.5,2.5,0,0,0-.55-.38h0m.25-.44c.6.35.86.54.79,1s-1,1.67-2.89,5c-1.84,3.11-2,3.19-3.18,5.27s-1.38,2.94-1.69,3a1.88,1.88,0,0,1-1.39-.38c-.26-.15-.49-.24-.67-.35a.6.6,0,0,1-.36-.67c.07-.63.6-1.29,1.49-3.09.6-1.12,1.22-2.51,2-3.82,1.23-2.14,1.8-2.89,2.85-4.49s1-1.72,1.36-1.91S100.31,1.11,100.92,1.46Z"/></g><g id="パス_97" data-name="パス 97"><path d="M76.9,15.77c-.35,0-.44-.08-.45-.09s-.16-.19.18-.95a14.71,14.71,0,0,1,1-1.76c.35-.55.45-.74.6-1s.4-.76,1.19-2.06a20.35,20.35,0,0,0,1.33-2.49,21.22,21.22,0,0,1,1.08-2.13c1.05-1.87,2.05-3.56,2.66-3.53s1.53,1,2.65,2.61l.53.71a23.42,23.42,0,0,1,2.46,4,36.3,36.3,0,0,0,2,3.32c.92,1.38,2,2.94,1.69,3.37-.12.19-.55.41-2,.33-.56,0-1.14-.09-1.66-.15s-.77-.09-1-.1h-.8c-1.13,0-3,0-5.37-.14l-.54,0h-.12a35.61,35.61,0,0,0-3.83.07C77.87,15.75,77.29,15.79,76.9,15.77Z"/><path class="cls-1" d="M84.52,1.5l0,.5s-.24,0-.78.72a25.77,25.77,0,0,0-1.64,2.69A21,21,0,0,0,81,7.51,21.09,21.09,0,0,1,79.65,10c-.78,1.29-1,1.73-1.18,2.05s-.25.46-.61,1A17.71,17.71,0,0,0,77,14.64a2.58,2.58,0,0,0-.3.85l.26,0c.38,0,1,0,1.62-.06a33.52,33.52,0,0,1,4-.06l.54,0c2.33.12,4.23.13,5.37.14h.8c.29,0,.65.05,1.07.1s1.09.12,1.64.15c1.47.08,1.72-.17,1.75-.21s0-.25-.36-1C93,14,92.5,13.3,92,12.52a35.63,35.63,0,0,1-2.06-3.35,22.62,22.62,0,0,0-2.44-3.94L87,4.5C85.66,2.71,84.76,2,84.49,2l0-.5m0,0c.71,0,1.93,1.45,2.84,2.71a26.21,26.21,0,0,1,3,4.73c1.55,3,4.29,6,3.73,6.94s-3.67.26-4.91.2H89c-1.11,0-3.47,0-6.56-.17-2.41-.14-4.54.17-5.58.12a1.1,1.1,0,0,1-.6-.15c-.48-.42.4-1.87,1.15-3s.31-.62,1.78-3.06,1.07-2.22,2.41-4.61,2.18-3.69,2.89-3.66Z"/></g></g><g id="グループ_4" data-name="グループ 4"><g id="パス_94" data-name="パス 94"><path class="cls-1" d="M37.92,31a10.09,10.09,0,0,1-2,6.11A6.67,6.67,0,0,1,30.73,40a16.85,16.85,0,0,1-4.27-.91,4.82,4.82,0,0,1-2.81-2.48,10.14,10.14,0,0,1-.73-4.16,8.07,8.07,0,0,1,3.35-6.92,8.13,8.13,0,0,1,4.2-.89,4.18,4.18,0,0,1,2,.92,5.51,5.51,0,0,0,1.31.73,7.37,7.37,0,0,1,3.08,1.48A4.17,4.17,0,0,1,37.92,31Z"/><path d="M37.67,31a4,4,0,0,0-1-3,7.18,7.18,0,0,0-3-1.42,5.8,5.8,0,0,1-1.37-.76,4.08,4.08,0,0,0-1.85-.88,7.84,7.84,0,0,0-4.07.86,7.77,7.77,0,0,0-3.23,6.69c0,3.19.64,5.37,3.38,6.42a17.06,17.06,0,0,0,4.18.89,6.41,6.41,0,0,0,5-2.84,10,10,0,0,0,2-6m.5,0c.08,4.38-3.06,9.24-7.44,9.31a17.69,17.69,0,0,1-4.36-.92c-3-1.14-3.64-3.54-3.7-6.88a8.32,8.32,0,0,1,3.47-7.13,8.24,8.24,0,0,1,4.32-.93c1.13,0,2.48,1.39,3.38,1.66C36.61,26.91,38.12,27.7,38.17,31Z"/></g><g id="パス_100" data-name="パス 100"><path d="M53.67,34.53h0a4.68,4.68,0,0,1-.18,1.32,4.58,4.58,0,0,1-1.75,2.33,7.29,7.29,0,0,1-3.06,1.32,8.2,8.2,0,0,1-3.88-.68l-.38-.15h0A4.58,4.58,0,0,1,42,36.43a9.38,9.38,0,0,1-1.24-4.34,8.05,8.05,0,0,1,3.23-7,3.62,3.62,0,0,1,3.23-.58c1,.25,1.53,1.15,2.16,2.2l.34.56a8.08,8.08,0,0,1,.65,1.4A7.45,7.45,0,0,0,52,31.5,4.62,4.62,0,0,1,53.67,34.53Z"/><path class="cls-1" d="M53.42,34.54a4.44,4.44,0,0,0-1.58-2.87,7.81,7.81,0,0,1-1.71-2.88,7.27,7.27,0,0,0-.62-1.36l-.34-.56c-.6-1-1.12-1.87-2-2.08a3.32,3.32,0,0,0-3,.54A7.78,7.78,0,0,0,41,32.08a9.1,9.1,0,0,0,1.2,4.22,4.41,4.41,0,0,0,2.27,2.13h0l.38.14a7.87,7.87,0,0,0,3.76.68A7.32,7.32,0,0,0,51.59,38a4.29,4.29,0,0,0,1.66-2.2,4.48,4.48,0,0,0,.17-1.24h0m.5,0a4.77,4.77,0,0,1-.19,1.39c-.51,1.88-2.73,3.43-5,3.84a9.06,9.06,0,0,1-4.37-.84c-1.84-.53-3.71-3.48-3.83-6.81a8.33,8.33,0,0,1,3.34-7.19,3.87,3.87,0,0,1,3.43-.61c1.27.31,1.86,1.59,2.65,2.86s.78,2.6,2.27,4.16A4.88,4.88,0,0,1,53.92,34.52Z"/></g><g id="グループ_137" data-name="グループ 137"><g id="パス_101" data-name="パス 101"><path class="cls-1" d="M56.9,39.45h0c-.49-.24-.54-2.12-.55-4a21.79,21.79,0,0,1,.07-2.19,17.34,17.34,0,0,0,0-2.6c-.05-1.4,0-1.86,0-2.2a9,9,0,0,0,0-1.08,13.11,13.11,0,0,1,0-1.87c.06-.76.24-.82.26-.82s.1,0,.39.12.77.45,1.29.78a31.1,31.1,0,0,0,3.06,1.77l.09,0,.43.21c1.94.95,3.49,1.79,4.41,2.29l.51.28.14.07.89.39c.44.18.94.39,1.39.61,1.24.6,1.43,1,1.44,1.14s-.09.33-.75.77-1.3.75-2.1,1.17c-1,.52-2.14,1.11-3.13,1.76a20.84,20.84,0,0,1-3.75,2.11l-.75.34C58.59,39.29,57.3,39.65,56.9,39.45Z"/><path d="M57,39.23c.21.1,1.23-.06,3.06-.92l.76-.34a21.82,21.82,0,0,0,3.71-2.09,32.22,32.22,0,0,1,3.15-1.78c.75-.39,1.46-.76,2-1.09s.73-.58.75-.63-.16-.36-1.29-.91c-.46-.22-1-.43-1.39-.61l-.9-.39-.15-.08-.51-.28c-.92-.5-2.46-1.34-4.4-2.28l-.52-.26a30.38,30.38,0,0,1-3.08-1.78c-.52-.33-1-.61-1.27-.76L56.72,25a2.52,2.52,0,0,0-.12.79,14.72,14.72,0,0,0,0,1.62,9.29,9.29,0,0,1,0,1.1c0,.33,0,.78,0,2.18a17.74,17.74,0,0,1,0,2.63,21.45,21.45,0,0,0-.07,2.17,22.32,22.32,0,0,0,.13,2.89c.11.8.28.9.28.9m-.22.45h0c-.58-.29-.68-1.72-.69-4.24s.21-2.17.11-4.78,0-2-.07-3.27-.14-2.83.43-3,2.38,1.47,4.9,2.69l.52.26c2.35,1.14,4.08,2.11,4.93,2.57.46.25,1.51.63,2.41,1.07s1.56.87,1.58,1.35c0,1-3.52,2.21-6.09,3.92a24.07,24.07,0,0,1-4.53,2.47C59,39.37,57.38,40,56.79,39.68Z"/></g><g id="パス_102" data-name="パス 102"><path d="M74,24.8a.87.87,0,0,1,.38-.13s.2.07.26.83a13.13,13.13,0,0,1,0,1.87c0,.6,0,.79,0,1.08s0,.79,0,2.19a19,19,0,0,0,0,2.61c0,.51.08,1,.08,2.19,0,1.89-.07,3.76-.56,4s-1.71-.18-3.27-.92l-.75-.34a20.81,20.81,0,0,1-3.76-2.11,30.47,30.47,0,0,0-3.12-1.76c-.81-.42-1.57-.82-2.1-1.17s-.76-.67-.76-.78.21-.53,1.44-1.13c.46-.22,1-.43,1.39-.61s.67-.28.9-.39l.13-.07.51-.28c.93-.5,2.47-1.35,4.41-2.29l.43-.21.1-.05a30.12,30.12,0,0,0,3-1.76C73.24,25.25,73.69,25,74,24.8Z"/><path class="cls-1" d="M74.23,39.68,74,39.23s.18-.1.29-.91a26.34,26.34,0,0,0,.13-2.89c0-1.13,0-1.65-.08-2.16a19.42,19.42,0,0,1,0-2.64c0-1.39,0-1.84,0-2.17s0-.49,0-1.1a14.87,14.87,0,0,0,.05-1.63,2.42,2.42,0,0,0-.12-.78l-.18.08a13.79,13.79,0,0,0-1.28.76,30.12,30.12,0,0,1-3.17,1.82l-.43.21c-1.93.95-3.48,1.79-4.4,2.29l-.51.28-.14.07c-.24.12-.55.25-.91.4s-.93.39-1.38.6c-1.14.56-1.28.87-1.29.92s.12.24.74.63,1.22.7,2,1.08c1,.53,2.15,1.12,3.15,1.78A20.07,20.07,0,0,0,70.2,38l.75.35c1.83.86,2.85,1,3.06.92l.22.45m0,0c-.58.28-2.2-.31-3.49-.92a24.06,24.06,0,0,1-4.53-2.47c-2.58-1.71-6.14-2.94-6.09-3.93S63,30.51,64,30l.13-.06c.89-.49,2.79-1.55,5.35-2.79,2-1,3.58-2.16,4.45-2.58a.92.92,0,0,1,.55-.15c.56.12.51,1.68.42,3s0,.64-.07,3.26.13,2.26.12,4.79-.11,3.94-.69,4.23Z"/></g></g><g id="パス_103" data-name="パス 103"><path class="cls-1" d="M79.72,39.81a.37.37,0,0,1-.41-.26A4.68,4.68,0,0,1,79.17,38c0-.47,0-1.07,0-1.83,0-.49,0-1,0-1.56,0-.89-.08-1.8-.07-2.73,0-1.86.12-2.83.22-4.05,0-.38.07-.78.11-1.24,0-.62.07-1.05.08-1.36,0-.64,0-.7.15-.87s.45-.28,1.51-.26c.73,0,.85.07.92.27a10.37,10.37,0,0,1,0,1.88c0,.89-.09,2.12-.12,3.77-.06,1.93-.1,2.86-.14,3.69s-.07,1.34-.09,2.46a24.1,24.1,0,0,0,.06,2.53,3.2,3.2,0,0,1,0,.79c-.09.1-.38.27-1.21.26a3.57,3.57,0,0,0-.47,0Z"/><path d="M81.08,24.39a2.72,2.72,0,0,0-1.31.16c-.06.09-.06.14-.1.73,0,.32,0,.74-.09,1.37,0,.46-.06.86-.1,1.25-.1,1.21-.18,2.17-.22,4,0,.91,0,1.83.07,2.71,0,.55,0,1.07,0,1.56,0,.77,0,1.36,0,1.84a4.65,4.65,0,0,0,.12,1.41.21.21,0,0,0,.06.1H80a3.68,3.68,0,0,1,.48,0,1.87,1.87,0,0,0,1-.15c0-.12,0-.38,0-.63a24.53,24.53,0,0,1-.06-2.55c0-1.13.05-1.75.09-2.48s.08-1.75.14-3.68c0-1.65.08-2.88.12-3.77a12.45,12.45,0,0,0,0-1.79.08.08,0,0,1,0,0,2.69,2.69,0,0,0-.67-.06h0m0-.5h0c.7,0,1,.05,1.15.44s-.06,1.94-.13,5.73c-.1,3.62-.18,3.75-.23,6.16s.22,3.23,0,3.48a2,2,0,0,1-1.41.34c-.7,0-1.14.19-1.39-.39s-.1-1.42-.2-3.43c0-1.27-.14-2.79-.12-4.3,0-2.47.18-3.4.33-5.31s.06-2,.26-2.34S80.39,23.88,81.09,23.89Z"/></g></g></g></g></g></svg>