<svg xmlns="http://www.w3.org/2000/svg" width="24" height="24" viewBox="0 0 24 24"><g transform="translate(-4.079 -4.079)"><path d="M16.079,6.241c3.2,0,3.584.012,4.849.07a6.642,6.642,0,0,1,2.228.413A3.974,3.974,0,0,1,25.434,9a6.641,6.641,0,0,1,.413,2.228c.058,1.265.07,1.645.07,4.849s-.012,3.584-.07,4.849a6.642,6.642,0,0,1-.413,2.228,3.974,3.974,0,0,1-2.277,2.277,6.642,6.642,0,0,1-2.228.413c-1.265.058-1.645.07-4.849.07s-3.584-.012-4.849-.07A6.642,6.642,0,0,1,9,25.434a3.974,3.974,0,0,1-2.277-2.277,6.642,6.642,0,0,1-.413-2.228c-.058-1.265-.07-1.645-.07-4.849s.012-3.584.07-4.849A6.642,6.642,0,0,1,6.724,9,3.974,3.974,0,0,1,9,6.724a6.642,6.642,0,0,1,2.228-.413c1.265-.058,1.645-.07,4.849-.07m0-2.162c-3.259,0-3.668.014-4.948.072a8.808,8.808,0,0,0-2.913.558,6.136,6.136,0,0,0-3.51,3.51,8.808,8.808,0,0,0-.558,2.913c-.058,1.28-.072,1.689-.072,4.948s.014,3.668.072,4.948a8.808,8.808,0,0,0,.558,2.913,6.136,6.136,0,0,0,3.51,3.51,8.808,8.808,0,0,0,2.913.558c1.28.058,1.689.072,4.948.072s3.668-.014,4.948-.072a8.808,8.808,0,0,0,2.913-.558,6.136,6.136,0,0,0,3.51-3.51,8.808,8.808,0,0,0,.558-2.913c.058-1.28.072-1.689.072-4.948s-.014-3.668-.072-4.948a8.808,8.808,0,0,0-.558-2.913,6.136,6.136,0,0,0-3.51-3.51,8.808,8.808,0,0,0-2.913-.558c-1.28-.058-1.689-.072-4.948-.072Z"/><path d="M132.8,126.635a6.162,6.162,0,1,0,6.162,6.162A6.162,6.162,0,0,0,132.8,126.635Zm0,10.162a4,4,0,1,1,4-4A4,4,0,0,1,132.8,136.8Z" transform="translate(-116.718 -116.718)"/><circle cx="1.44" cy="1.44" r="1.44" transform="translate(21.045 8.233)"/></g></svg>