<?xml version="1.0" encoding="UTF-8"?><svg id="_レイヤー_2" xmlns="http://www.w3.org/2000/svg" viewBox="0 0 24 24"><defs><style>.cls-1{fill-rule:evenodd;}</style></defs><g id="Layer_1"><path class="cls-1" d="m23.76,9.59c-.16-.77-.39-1.53-.7-2.26-.3-.71-.67-1.4-1.11-2.04-.43-.64-.92-1.23-1.47-1.77-.54-.54-1.14-1.04-1.77-1.47-.64-.43-1.33-.81-2.04-1.11-.73-.31-1.48-.54-2.26-.7-.79-.16-1.6-.24-2.42-.24s-1.63.08-2.42.24c-.77.16-1.53.39-2.25.7-.71.3-1.4.67-2.04,1.11-.64.43-1.23.92-1.77,1.47-.54.54-1.03,1.14-1.46,1.77-.43.64-.81,1.33-1.11,2.04-.31.73-.54,1.48-.7,2.26-.16.79-.24,1.6-.24,2.42s.08,1.63.24,2.42c.16.77.39,1.53.7,2.25.3.71.67,1.4,1.11,2.04.43.64.92,1.23,1.46,1.77.54.54,1.14,1.03,1.77,1.46.64.43,1.33.81,2.04,1.11.72.31,1.48.54,2.25.7.79.16,1.6.24,2.42.24s1.63-.08,2.42-.24c.77-.16,1.53-.39,2.26-.7.71-.3,1.4-.67,2.04-1.11.64-.43,1.23-.92,1.77-1.46s1.04-1.14,1.47-1.77c.43-.64.81-1.33,1.11-2.04.31-.72.54-1.48.7-2.25.16-.79.24-1.6.24-2.42s-.08-1.63-.24-2.42Zm-1.51,2.31c-.15-.03-3.62-.78-7.14-.34-.07-.18-.15-.35-.22-.53-.21-.5-.44-1-.68-1.49,4.05-1.65,5.69-4.03,5.71-4.06,1.44,1.74,2.31,3.97,2.33,6.41h0Zm-3.48-7.58s-1.49,2.26-5.35,3.71c-1.75-3.22-3.68-5.78-3.83-5.98.77-.19,1.58-.29,2.42-.29,2.6,0,4.96.97,6.77,2.56h0Zm-9.22-2.26h-.03.03Zm-1.92.68c.14.18,2.03,2.75,3.81,5.91-4.92,1.31-9.19,1.26-9.46,1.25.67-3.17,2.8-5.81,5.66-7.16h-.01ZM1.75,12v-.32c.18,0,5.24.12,10.52-1.46.29.57.57,1.16.83,1.74-.14.04-.27.08-.4.12-5.53,1.79-8.34,6.76-8.34,6.76h0c-1.63-1.82-2.63-4.22-2.63-6.85h.02Zm10.25,10.26c-2.48,0-4.76-.88-6.53-2.35.13.11.23.18.23.18,0,0,1.96-4.28,8.04-6.4.02,0,.05-.02.07-.02,1.44,3.75,2.04,6.89,2.19,7.78-1.23.52-2.58.81-4,.81Zm5.73-1.75c-.1-.62-.65-3.63-1.99-7.32,3.31-.53,6.18.38,6.39.45-.46,2.86-2.09,5.32-4.39,6.87h-.01Z"/></g></svg>