<svg xmlns="http://www.w3.org/2000/svg" width="54.186" height="53.181" viewBox="0 0 54.186 53.181">
  <g id="number_img_4.svg" transform="translate(-7939 -10146.855)">
    <path id="パス_113" data-name="パス 113" d="M29.418,0c10.445,0,13.076,4.779,15.9,13.622.91,2.852,5.524,7.123,5.524,10.717,0,4.843-.34,9.944-2.769,13.922-4.386,7.187-13.456,11.494-22.651,11.495-10.684,0-18.411-2.012-22.23-11.494C2.067,35.476,0,27.695,0,24.34,0,10.3,15.379,0,29.418,0Z" transform="translate(7993.186 10196.49) rotate(176)"/>
    <path id="パス_117" data-name="パス 117" d="M7.227-3.5H4.5V0H1.727V-3.5H-6.721v-1.98L.869-15.4H3.927l-7.15,9.482H1.815v-3.1H4.5v3.1H7.227Z" transform="translate(7966.006 10180.855)" fill="#fff"/>
  </g>
</svg>
