<svg xmlns="http://www.w3.org/2000/svg" width="54.186" height="53.181" viewBox="0 0 54.186 53.181">
  <g id="number_img_3.svg" transform="translate(-7939 -10146.855)">
    <path id="パス_113" data-name="パス 113" d="M29.418,0c10.445,0,13.076,4.779,15.9,13.622.91,2.852,5.524,7.123,5.524,10.717,0,4.843-.34,9.944-2.769,13.922-4.386,7.187-13.456,11.494-22.651,11.495-10.684,0-18.411-2.012-22.23-11.494C2.067,35.476,0,27.695,0,24.34,0,10.3,15.379,0,29.418,0Z" transform="translate(7993.186 10196.49) rotate(176)"/>
    <path id="パス_116" data-name="パス 116" d="M1.122-9.042A5.188,5.188,0,0,1,4.378-7.59,4.157,4.157,0,0,1,5.5-4.62a4.542,4.542,0,0,1-.682,2.442A4.69,4.69,0,0,1,2.761-.429,7.821,7.821,0,0,1-.594.22,10.7,10.7,0,0,1-3.773-.253,8.13,8.13,0,0,1-6.38-1.562l1.232-2.222A6.23,6.23,0,0,0-3.113-2.673a7.648,7.648,0,0,0,2.475.407,4.011,4.011,0,0,0,2.387-.627,1.993,1.993,0,0,0,.869-1.7,1.969,1.969,0,0,0-.825-1.683A4.266,4.266,0,0,0-.726-6.886H-2.134V-8.844L1.364-13h-7v-2.4H4.862v1.914Z" transform="translate(7966.006 10180.855)" fill="#fff"/>
  </g>
</svg>
