<svg xmlns="http://www.w3.org/2000/svg" width="54.186" height="53.181" viewBox="0 0 54.186 53.181">
  <g id="number_img_2.svg" transform="translate(-7939 -10146.855)">
    <path id="パス_113" data-name="パス 113" d="M29.418,0c10.445,0,13.076,4.779,15.9,13.622.91,2.852,5.524,7.123,5.524,10.717,0,4.843-.34,9.944-2.769,13.922-4.386,7.187-13.456,11.494-22.651,11.495-10.684,0-18.411-2.012-22.23-11.494C2.067,35.476,0,27.695,0,24.34,0,10.3,15.379,0,29.418,0Z" transform="translate(7993.186 10196.49) rotate(176)"/>
    <path id="パス_115" data-name="パス 115" d="M5.72-2.42V0H-5.632V-1.914L.484-7.722a6.719,6.719,0,0,0,1.4-1.727,3.289,3.289,0,0,0,.363-1.463,1.976,1.976,0,0,0-.726-1.65,3.4,3.4,0,0,0-2.134-.572,4.305,4.305,0,0,0-3.608,1.606l-2-1.54a5.929,5.929,0,0,1,2.431-1.881A8.426,8.426,0,0,1-.374-15.62a6.258,6.258,0,0,1,4,1.188,3.909,3.909,0,0,1,1.5,3.234A5.37,5.37,0,0,1,4.6-8.844,9.188,9.188,0,0,1,2.574-6.336L-1.54-2.42Z" transform="translate(7966.006 10180.855)" fill="#fff"/>
  </g>
</svg>
