<svg xmlns="http://www.w3.org/2000/svg" width="80" height="78.879" viewBox="0 0 80 78.879">
  <g id="グループ_78" data-name="グループ 78" transform="translate(0 -0.362)">
    <path id="パス_73" data-name="パス 73" d="M39.177,0c13.91,0,17.414,6.364,21.172,18.138,1.213,3.8,7.356,9.485,7.356,14.269,0,6.448-.453,13.241-3.687,18.537-5.841,9.57-17.92,15.3-30.166,15.3-14.228,0-24.519-2.679-29.6-15.3C2.753,47.235,0,36.875,0,32.408,0,13.717,20.481,0,39.177,0Z" transform="matrix(0.978, -0.208, 0.208, 0.978, 0, 14.44)"/>
    <path id="パス_74" data-name="パス 74" d="M9031.2,10232.533v-30l6,5" transform="translate(-8991.202 -10177.67)" fill="none" stroke="#fff" stroke-width="3"/>
  </g>
</svg>
