<svg xmlns="http://www.w3.org/2000/svg" xmlns:xlink="http://www.w3.org/1999/xlink" width="460" height="307" viewBox="0 0 460 307"><defs><clipPath id="b"><rect width="460" height="307"/></clipPath></defs><g id="a" clip-path="url(#b)"><rect width="460" height="307" fill="#fff"/><rect width="460" height="307" fill="#f2f2f2"/><g transform="translate(0 -28.999)"><g transform="translate(-320 93.766)"><g transform="translate(480 109.235)"><path d="M10.891,0c3.867,0,4.841,1.769,5.886,5.042.337,1.056,2.045,2.637,2.045,3.967A9.919,9.919,0,0,1,17.8,14.163a9.863,9.863,0,0,1-8.386,4.255c-3.955,0-6.816-.745-8.23-4.255A20.683,20.683,0,0,1,0,9.009C0,3.813,5.694,0,10.891,0Z" transform="translate(41.333 0) rotate(87)"/><g transform="matrix(1, -0.017, 0.017, 1, 71.199, 0.837)" fill="none"><path d="M10.891,0c3.867,0,4.841,1.769,5.886,5.042.337,1.056,2.045,2.637,2.045,3.967A9.919,9.919,0,0,1,17.8,14.163a9.863,9.863,0,0,1-8.386,4.255c-3.955,0-6.816-.745-8.23-4.255A20.683,20.683,0,0,1,0,9.009C0,3.813,5.694,0,10.891,0Z" stroke="none"/><path d="M 10.89120101928711 0.4999942779541016 C 8.438020706176758 0.4999942779541016 5.787981033325195 1.416534423828125 3.802350997924805 2.95174503326416 C 1.672800064086914 4.598215103149414 0.5 6.749485015869141 0.5 9.009274482727051 C 0.5 10.17297458648682 1.257900238037109 13.01602554321289 1.644760131835938 13.97581481933594 C 2.271221160888672 15.5309944152832 3.193870544433594 16.53970527648926 4.54840087890625 17.1502857208252 C 5.72511100769043 17.68070411682129 7.224790573120117 17.91724395751953 9.4110107421875 17.91724395751953 C 12.75728034973145 17.91724395751953 15.8814811706543 16.34122467041016 17.37031173706055 13.90207481384277 C 18.20672035217285 12.53220462799072 18.322021484375 10.74093437194824 18.322021484375 9.009274482727051 C 18.322021484375 8.362685203552246 17.73689079284668 7.522284507751465 17.22064018249512 6.780824661254883 C 16.82798004150391 6.216864585876465 16.45709037780762 5.684185028076172 16.30068016052246 5.194424629211426 C 15.28220081329346 2.003374099731445 14.41653060913086 0.4999942779541016 10.89120101928711 0.4999942779541016 M 10.89120101928711 -5.7220458984375e-06 C 14.75818061828613 -5.7220458984375e-06 15.7323112487793 1.769205093383789 16.77700996398926 5.042394638061523 C 17.11411094665527 6.097945213317871 18.822021484375 7.67912483215332 18.822021484375 9.009274482727051 C 18.822021484375 10.80185508728027 18.69613075256348 12.69013500213623 17.79705047607422 14.16263484954834 C 16.17322158813477 16.82295417785645 12.81541061401367 18.41724395751953 9.4110107421875 18.41724395751953 C 5.455670356750488 18.41724395751953 2.59480094909668 17.67242431640625 1.180971145629883 14.16263484954834 C 0.7652301788330078 13.13119506835938 0 10.25108528137207 0 9.009274482727051 C 0 3.813394546508789 5.69364070892334 -5.7220458984375e-06 10.89120101928711 -5.7220458984375e-06 Z" stroke="none" fill="#000"/></g><g transform="matrix(1, 0.017, -0.017, 1, 0.308, 1.208)" fill="none"><path d="M9.042,17.674c.837.007,2.379-1.592,3.538-3.035A30.576,30.576,0,0,0,16.44,9.22c2.018-3.437,5.453-6.867,4.845-7.988S16.611.743,15.3.688,11.18.468,7.512.489.768-.324.182.141.541,2.376,1.359,3.809s.333.762,1.925,3.741,1.122,2.693,2.564,5.608S8.2,17.667,9.042,17.674Z" stroke="none"/><path d="M 9.047487258911133 17.6737003326416 L 9.047487258911133 17.1737003326416 C 9.111387252807617 17.1737003326416 9.474847793579102 17.13286972045898 10.35732746124268 16.32684135437012 C 10.90304756164551 15.82839107513428 11.5537576675415 15.117600440979 12.18958759307861 14.32540035247803 C 12.43220806121826 14.02311038970947 12.65428733825684 13.75993061065674 12.86905765533447 13.50540065765381 C 13.67071723937988 12.55536079406738 14.42791748046875 11.65800094604492 16.0084171295166 8.966530799865723 C 16.78811836242676 7.638790607452393 17.77726745605469 6.30962085723877 18.64998817443848 5.136930465698242 C 19.34549713134766 4.202330589294434 20.0024471282959 3.319570779800415 20.41544723510742 2.619140625 C 20.95756721496582 1.699730634689331 20.85002708435059 1.479480624198914 20.84517860412598 1.470560669898987 C 20.80795860290527 1.401960611343384 20.52972793579102 1.059780716896057 18.70262718200684 1.059780716896057 C 18.05023765563965 1.059780716896057 17.35795783996582 1.10071063041687 16.74717712402344 1.136810660362244 C 16.24772834777832 1.166340708732605 15.81639766693115 1.191840648651123 15.4779577255249 1.191850662231445 C 15.4033374786377 1.191850662231445 15.33695793151855 1.190610647201538 15.27506732940674 1.188060641288757 C 15.06323719024658 1.179340720176697 14.81300735473633 1.167720675468445 14.52694797515869 1.154420614242554 C 13.18028736114502 1.091840624809265 10.92638778686523 0.9870906472206116 8.161897659301758 0.9870906472206116 C 7.949427604675293 0.9870906472206116 7.734207630157471 0.9877006411552429 7.515377521514893 0.9889806509017944 C 5.739819526672363 0.9994456768035889 4.118366718292236 0.8146200776100159 2.823817729949951 0.6670206785202026 C 2.037747621536255 0.5774006843566895 1.358877658843994 0.5000006556510925 0.9036676287651062 0.5000006556510925 C 0.6679492592811584 0.5000006556510925 0.554548442363739 0.5208156704902649 0.5059883594512939 0.5342060923576355 C 0.4918010234832764 0.6107712388038635 0.4788683354854584 0.8900293111801147 0.7818076610565186 1.607490658760071 C 1.042687654495239 2.22532057762146 1.43961763381958 2.941670656204224 1.793497681617737 3.560920715332031 C 2.182917594909668 4.242380619049072 2.287747621536255 4.466570854187012 2.446417570114136 4.805940628051758 C 2.628117561340332 5.194550514221191 2.876957654953003 5.726760864257812 3.725447654724121 7.313790798187256 C 4.605137825012207 8.959170341491699 4.873287677764893 9.644371032714844 5.157177448272705 10.36980056762695 C 5.398677825927734 10.98690032958984 5.648397445678711 11.62501049041748 6.29674768447876 12.93599033355713 C 6.907397747039795 14.1707706451416 7.546907424926758 15.42410087585449 8.086767196655273 16.22712135314941 C 8.659457206726074 17.07896041870117 8.948408126831055 17.17286109924316 9.045897483825684 17.1737003326416 L 9.047487258911133 17.6737003326416 M 9.047399520874023 17.67370414733887 C 9.045553207397461 17.67370414733887 9.043617248535156 17.67369651794434 9.041777610778809 17.67368125915527 C 8.204617500305176 17.6665210723877 7.290137767791748 16.07260131835938 5.848557472229004 13.15764045715332 C 4.406967639923096 10.24268054962158 4.877097606658936 10.52833080291748 3.284507751464844 7.549530506134033 C 1.691917657852173 4.570720672607422 2.178077697753906 5.241650581359863 1.35937762260437 3.809000730514526 C 0.5406776666641235 2.376340627670288 -0.4037923514842987 0.6062606573104858 0.1821976602077484 0.1412206590175629 C 0.7607581615447998 -0.3179253339767456 3.767117500305176 0.4894869327545166 7.372515201568604 0.4893989861011505 C 7.418875217437744 0.4893978536128998 7.465923309326172 0.4892632365226746 7.512477874755859 0.4889906644821167 C 11.17953586578369 0.4675108790397644 13.98034763336182 0.6343706846237183 15.29561805725098 0.6884806752204895 C 15.97900867462158 0.7165951132774353 17.40496826171875 0.5597829222679138 18.7026309967041 0.5597829222679138 C 19.90243148803711 0.5597829222679138 20.99257469177246 0.6938462853431702 21.28464698791504 1.232080698013306 C 21.89260673522949 2.352460622787476 18.45763778686523 5.783150672912598 16.43957710266113 9.219720840454102 C 14.42151737213135 12.65631103515625 13.73787784576416 13.19515037536621 12.57952785491943 14.63837051391602 C 11.42371273040771 16.07841873168945 9.885807037353516 17.67382431030273 9.047399520874023 17.67370414733887 Z" stroke="none" fill="#000"/></g><path d="M9.042,17.674c.837.007,2.379-1.592,3.538-3.035A30.576,30.576,0,0,0,16.44,9.22c2.018-3.437,5.453-6.867,4.845-7.988S16.611.743,15.3.688s-1.94-.025-1.94-.025,2.656-2.7-3.5,4.52c-4.035,6.092-4.665,6.569-4.665,6.569s-.42-.769.655,1.405S8.2,17.667,9.042,17.674Z" transform="translate(49.733 19.355) rotate(-65)"/><g transform="translate(62.962 20.855) rotate(178)" fill="none"><path d="M9.042,17.674c.837.007,2.379-1.592,3.538-3.035A30.576,30.576,0,0,0,16.44,9.22c2.018-3.437,5.453-6.867,4.845-7.988S16.611.743,15.3.688,11.18.468,7.512.489.768-.324.182.141.541,2.376,1.359,3.809s.333.762,1.925,3.741,1.122,2.693,2.564,5.608S8.2,17.667,9.042,17.674Z" stroke="none"/><path d="M 9.047487258911133 17.6737003326416 L 9.047487258911133 17.1737003326416 C 9.111387252807617 17.1737003326416 9.474847793579102 17.13286972045898 10.35732746124268 16.32684135437012 C 10.90304756164551 15.82839107513428 11.5537576675415 15.117600440979 12.18958759307861 14.32540035247803 C 12.43220806121826 14.02311038970947 12.65428733825684 13.75993061065674 12.86905765533447 13.50540065765381 C 13.67071723937988 12.55536079406738 14.42791748046875 11.65800094604492 16.0084171295166 8.966530799865723 C 16.78811836242676 7.638790607452393 17.77726745605469 6.30962085723877 18.64998817443848 5.136930465698242 C 19.34549713134766 4.202330589294434 20.0024471282959 3.319570779800415 20.41544723510742 2.619140625 C 20.95756721496582 1.699730634689331 20.85002708435059 1.479480624198914 20.84517860412598 1.470560669898987 C 20.80795860290527 1.401960611343384 20.52972793579102 1.059780716896057 18.70262718200684 1.059780716896057 C 18.05023765563965 1.059780716896057 17.35795783996582 1.10071063041687 16.74717712402344 1.136810660362244 C 16.24772834777832 1.166340708732605 15.81639766693115 1.191840648651123 15.4779577255249 1.191850662231445 C 15.4033374786377 1.191850662231445 15.33695793151855 1.190610647201538 15.27506732940674 1.188060641288757 C 15.06323719024658 1.179340720176697 14.81300735473633 1.167720675468445 14.52694797515869 1.154420614242554 C 13.18028736114502 1.091840624809265 10.92638778686523 0.9870906472206116 8.161897659301758 0.9870906472206116 C 7.949427604675293 0.9870906472206116 7.734207630157471 0.9877006411552429 7.515377521514893 0.9889806509017944 C 5.739819526672363 0.9994456768035889 4.118366718292236 0.8146200776100159 2.823817729949951 0.6670206785202026 C 2.037747621536255 0.5774006843566895 1.358877658843994 0.5000006556510925 0.9036676287651062 0.5000006556510925 C 0.6679492592811584 0.5000006556510925 0.554548442363739 0.5208156704902649 0.5059883594512939 0.5342060923576355 C 0.4918010234832764 0.6107712388038635 0.4788683354854584 0.8900293111801147 0.7818076610565186 1.607490658760071 C 1.042687654495239 2.22532057762146 1.43961763381958 2.941670656204224 1.793497681617737 3.560920715332031 C 2.182917594909668 4.242380619049072 2.287747621536255 4.466570854187012 2.446417570114136 4.805940628051758 C 2.628117561340332 5.194550514221191 2.876957654953003 5.726760864257812 3.725447654724121 7.313790798187256 C 4.605137825012207 8.959170341491699 4.873287677764893 9.644371032714844 5.157177448272705 10.36980056762695 C 5.398677825927734 10.98690032958984 5.648397445678711 11.62501049041748 6.29674768447876 12.93599033355713 C 6.907397747039795 14.1707706451416 7.546907424926758 15.42410087585449 8.086767196655273 16.22712135314941 C 8.659457206726074 17.07896041870117 8.948408126831055 17.17286109924316 9.045897483825684 17.1737003326416 L 9.047487258911133 17.6737003326416 M 9.047399520874023 17.67370414733887 C 9.045553207397461 17.67370414733887 9.043617248535156 17.67369651794434 9.041777610778809 17.67368125915527 C 8.204617500305176 17.6665210723877 7.290137767791748 16.07260131835938 5.848557472229004 13.15764045715332 C 4.406967639923096 10.24268054962158 4.877097606658936 10.52833080291748 3.284507751464844 7.549530506134033 C 1.691917657852173 4.570720672607422 2.178077697753906 5.241650581359863 1.35937762260437 3.809000730514526 C 0.5406776666641235 2.376340627670288 -0.4037923514842987 0.6062606573104858 0.1821976602077484 0.1412206590175629 C 0.7607581615447998 -0.3179253339767456 3.767117500305176 0.4894869327545166 7.372515201568604 0.4893989861011505 C 7.418875217437744 0.4893978536128998 7.465923309326172 0.4892632365226746 7.512477874755859 0.4889906644821167 C 11.17953586578369 0.4675108790397644 13.98034763336182 0.6343706846237183 15.29561805725098 0.6884806752204895 C 15.97900867462158 0.7165951132774353 17.40496826171875 0.5597829222679138 18.7026309967041 0.5597829222679138 C 19.90243148803711 0.5597829222679138 20.99257469177246 0.6938462853431702 21.28464698791504 1.232080698013306 C 21.89260673522949 2.352460622787476 18.45763778686523 5.783150672912598 16.43957710266113 9.219720840454102 C 14.42151737213135 12.65631103515625 13.73787784576416 13.19515037536621 12.57952785491943 14.63837051391602 C 11.42371273040771 16.07841873168945 9.885807037353516 17.67382431030273 9.047399520874023 17.67370414733887 Z" stroke="none" fill="#000"/></g><path d="M9.042,17.674c.837.007,2.379-1.592,3.538-3.035A30.575,30.575,0,0,0,16.44,9.22c2.018-3.437,5.453-6.867,4.845-7.988S16.611.743,15.3.688,11.18.468,7.512.489.768-.324.182.141.541,2.376,1.359,3.809s.333.762,1.925,3.741,1.122,2.693,2.564,5.608S8.2,17.667,9.042,17.674Z" transform="matrix(0.574, 0.819, -0.819, 0.574, 127.751, 1.722)"/><g transform="translate(117.793 0.906) rotate(30)" fill="none"><path d="M.535.492C.764.094,1.758,0,2.587,0S3.792.039,3.959.5s-.02,2.3-.034,6.8c-.039,4.29-.126,4.446-.143,7.3s.332,3.833.073,4.126a2.276,2.276,0,0,1-1.658.433c-.829,0-1.35.253-1.657-.434S.39,17.048.231,14.668C.181,13.16,0,11.367,0,9.57c0-2.927.137-4.032.271-6.3S.306.891.535.492Z" stroke="none"/><path d="M 2.584015607833862 0.4999942779541016 C 1.461983680725098 0.4999942779541016 1.038610219955444 0.6772556304931641 0.9635384082794189 0.7499656677246094 C 0.8813843727111816 0.8937702178955078 0.8738737106323242 0.9363498687744141 0.8461456298828125 1.679695129394531 C 0.8323156833648682 2.050434112548828 0.8133656978607178 2.558185577392578 0.7697556018829346 3.298185348510742 C 0.7374956607818604 3.845685005187988 0.7054057121276855 4.319745063781738 0.6743655204772949 4.77818489074707 C 0.5765855312347412 6.222384452819824 0.4993555545806885 7.363104820251465 0.5000057220458984 9.570095062255859 C 0.5003256797790527 10.66174507141113 0.567455530166626 11.74394416809082 0.6323757171630859 12.79051494598389 C 0.6728470325469971 13.44291496276855 0.71108078956604 14.05933380126953 0.7307827472686768 14.64271354675293 C 0.7910103797912598 15.54991340637207 0.8060126304626465 16.254638671875 0.8180756568908691 16.82126426696777 C 0.8362855911254883 17.67633438110352 0.8472754955291748 18.19244384765625 0.996875524520874 18.52739524841309 C 1.070235729217529 18.69166564941406 1.101515531539917 18.71048545837402 1.301165580749512 18.71048545837402 C 1.395095586776733 18.71048545837402 1.505345582962036 18.70200538635254 1.63299560546875 18.69218444824219 C 1.798485517501831 18.67946434020996 1.986055612564087 18.66503524780273 2.199435710906982 18.66503524780273 C 3.046674728393555 18.66503524780273 3.350881814956665 18.50653457641602 3.447190999984741 18.43176078796387 C 3.462897777557373 18.29762268066406 3.434389591217041 17.95418930053711 3.40673565864563 17.62104415893555 C 3.353705644607544 16.98210525512695 3.273545742034912 16.01652526855469 3.282205581665039 14.60354423522949 C 3.290375709533691 13.26968479156494 3.313385486602783 12.52943420410156 3.340035676956177 11.67229461669922 C 3.370365619659424 10.69646453857422 3.404755592346191 9.590444564819336 3.425405502319336 7.30235481262207 C 3.431535720825195 5.339365005493164 3.470155715942383 3.885564804077148 3.498355627059937 2.824054718017578 C 3.527585506439209 1.723745346069336 3.550665616989136 0.854644775390625 3.488755702972412 0.6705856323242188 C 3.45041561126709 0.5643653869628906 3.427285671234131 0.500244140625 2.587175607681274 0.4999942779541016 L 2.584015607833862 0.4999942779541016 M 2.584012508392334 -5.7220458984375e-06 C 3.414226770401001 0.000530242919921875 3.792201995849609 0.03846168518066406 3.959065675735474 0.5008640289306641 C 4.125705718994141 0.9626655578613281 3.939465522766113 2.799354553222656 3.925405502319336 7.303915023803711 C 3.886695623397827 11.59393501281738 3.799695491790771 11.74951457977295 3.782195568084717 14.60660457611084 C 3.764695644378662 17.46369552612305 4.114195823669434 18.43935394287109 3.855395555496216 18.73227500915527 C 3.596605539321899 19.02518463134766 3.025989532470703 19.16529083251953 2.197305679321289 19.16503524780273 C 1.84578800201416 19.16493988037109 1.549237728118896 19.21048736572266 1.301162481307983 19.21048736572266 C 0.9645907878875732 19.21048736572266 0.7169208526611328 19.12668609619141 0.5403356552124023 18.73129463195801 C 0.2335855960845947 18.04448509216309 0.3899056911468506 17.04839515686035 0.2313356399536133 14.66756439208984 C 0.1808257102966309 13.15974426269531 0.0005354881286621094 11.36679458618164 5.7220458984375e-06 9.570244789123535 C -0.0008544921875 6.642874717712402 0.1368856430053711 5.538274765014648 0.2706255912780762 3.268774032592773 C 0.4043655395507812 0.9992656707763672 0.3058955669403076 0.8907241821289062 0.5349655151367188 0.4922256469726562 C 0.7637419700622559 0.09423637390136719 1.755882263183594 -5.7220458984375e-06 2.584012508392334 -5.7220458984375e-06 Z" stroke="none" fill="#000"/></g><path d="M9.042,0c.837-.007,2.379,1.592,3.538,3.035a30.576,30.576,0,0,1,3.86,5.419c2.018,3.437,5.453,6.867,4.845,7.988s-4.674.489-5.989.544-4.116.221-7.783.2S.768,18,.182,17.532.541,15.3,1.359,13.865s.333-.762,1.925-3.741S4.407,7.431,5.849,4.516,8.2.007,9.042,0Z" transform="translate(91.543 1.769) rotate(3)"/></g><g transform="translate(514.167 137.994)"><g transform="matrix(-0.017, -1, 1, -0.017, 0.328, 19.64)" fill="none"><path d="M10.891,18.417c3.867,0,4.841-1.769,5.886-5.042.337-1.056,2.045-2.637,2.045-3.967A9.919,9.919,0,0,0,17.8,4.255,9.863,9.863,0,0,0,9.411,0C5.456,0,2.595.745,1.181,4.255A20.683,20.683,0,0,0,0,9.408C0,14.6,5.694,18.417,10.891,18.417Z" stroke="none"/><path d="M 10.89120388031006 17.91724014282227 C 14.41654396057129 17.91724014282227 15.28221321105957 16.41387176513672 16.30071449279785 13.22273063659668 C 16.45710372924805 12.73306083679199 16.82798385620117 12.2003812789917 17.22063446044922 11.63643074035645 C 17.73689270019531 10.8949613571167 18.32202339172363 10.05456066131592 18.32202339172363 9.407971382141113 C 18.32202339172363 7.676311016082764 18.20672416687012 5.885041236877441 17.37027359008789 4.515110969543457 C 15.88149356842041 2.076020956039429 12.75729370117188 0.5000010132789612 9.411013603210449 0.5000010132789612 C 7.224793434143066 0.5000010132789612 5.725113391876221 0.7365410327911377 4.548393726348877 1.266970992088318 C 3.193873643875122 1.877541065216064 2.271223545074463 2.886250972747803 1.644723653793335 4.441531181335449 C 1.257903575897217 5.401220798492432 0.5000035762786865 8.244271278381348 0.5000035762786865 9.407971382141113 C 0.5000035762786865 11.66775131225586 1.672803640365601 13.81902122497559 3.802343606948853 15.465500831604 C 5.787983417510986 17.00070190429688 8.438023567199707 17.91724014282227 10.89120388031006 17.91724014282227 M 10.89120388031006 18.41724014282227 C 5.693643569946289 18.41724014282227 3.603210416258662e-06 14.60384082794189 3.603210416258662e-06 9.407971382141113 C 3.603210416258662e-06 8.16615104675293 0.76523357629776 5.286050796508789 1.180973649024963 4.254611015319824 C 2.594793558120728 0.7448310256004333 5.455673694610596 1.025085452965868e-06 9.411013603210449 1.025085452965868e-06 C 12.81541347503662 1.025085452965868e-06 16.17323303222656 1.594290971755981 17.79705429077148 4.254611015319824 C 18.69613265991211 5.727110862731934 18.82202339172363 7.615391254425049 18.82202339172363 9.407971382141113 C 18.82202339172363 10.73811149597168 17.1141242980957 12.31930065155029 16.77701377868652 13.37485122680664 C 15.73232364654541 16.64803123474121 14.75818347930908 18.41724014282227 10.89120388031006 18.41724014282227 Z" stroke="none" fill="#000"/></g><path d="M18.4,8.35a4.588,4.588,0,0,0-.584-4.1A9.863,9.863,0,0,0,9.425,0C5.47,0,1.9,2.095,1.2,4.255A10.811,10.811,0,0,0,.014,9.408c.392,2.725,2.137,5.423,4.345,6.108s3.593.081,5.5-1.625,3.489-1.626,5.027-2.516S17.971,9.841,18.4,8.35Z" transform="translate(21.667 19.209) rotate(-92)"/><g transform="translate(33.158 0.5)"><g transform="matrix(0.899, 0.438, -0.438, 0.899, 7.134, 0)" fill="none"><path d="M8.325,16.273c.77.007,2.189-1.465,3.255-2.794a28.127,28.127,0,0,0,3.551-4.988c1.856-3.163,5.016-6.321,4.457-7.353s-4.3-.452-5.512-.5S10.288.433,6.913.452.707-.3.168.13.5,2.188,1.252,3.507s.306.7,1.773,3.444,1.034,2.48,2.361,5.164S7.554,16.266,8.325,16.273Z" stroke="none"/><path d="M 8.330227851867676 16.27304077148438 L 8.330327987670898 15.77304077148438 C 8.639278411865234 15.77304077148438 9.65573787689209 15.07891082763672 11.18974781036377 13.16660022735596 C 11.41324806213379 12.88798999786377 11.61770820617676 12.6455602645874 11.81543827056885 12.41112041473389 C 12.55179786682129 11.538010597229 13.24732780456543 10.7133207321167 14.69940853118896 8.23878002166748 C 15.41769790649414 7.014710426330566 16.32833862304688 5.790350437164307 17.13177871704102 4.710110187530518 C 17.75855827331543 3.867400407791138 18.3505687713623 3.071430444717407 18.7302188873291 2.43535041809082 C 19.23123741149902 1.595900416374207 19.14835739135742 1.379050374031067 19.14787864685059 1.377780437469482 C 19.12798881530762 1.341130375862122 18.90458869934082 1.019740462303162 17.20708847045898 1.019740462303162 C 16.60901832580566 1.019740462303162 15.97405815124512 1.057120442390442 15.41383838653564 1.090110421180725 C 14.95436859130859 1.117160439491272 14.55755805969238 1.140520453453064 14.24597835540771 1.140530467033386 C 14.17577838897705 1.140530467033386 14.11335849761963 1.139360427856445 14.05511856079102 1.136950373649597 C 13.86015796661377 1.128870368003845 13.62985801696777 1.118110418319702 13.36657810211182 1.10580039024353 C 12.12216854095459 1.047610402107239 10.03939819335938 0.9502204060554504 7.483438491821289 0.9502204060554504 C 7.296878337860107 0.9502204060554504 7.107968330383301 0.9507304430007935 6.916138172149658 0.9518004059791565 C 5.279201507568359 0.9611726999282837 3.786519289016724 0.7903127670288086 2.593808174133301 0.6539704203605652 C 1.871078252792358 0.5713503956794739 1.2469083070755 0.5000004172325134 0.8303182721138 0.5000004172325134 C 0.6521105170249939 0.5000004172325134 0.5522175431251526 0.5135133862495422 0.5008857250213623 0.524290144443512 C 0.4925278127193451 0.6147366166114807 0.5060334801673889 0.8782805204391479 0.7684482336044312 1.492470383644104 C 1.008238196372986 2.053710460662842 1.366778254508972 2.700290441513062 1.685888290405273 3.258750438690186 C 2.045218229293823 3.887620449066162 2.142008304595947 4.094630241394043 2.288528203964233 4.407980442047119 C 2.45563817024231 4.765380382537842 2.684508323669434 5.254870414733887 3.465218305587769 6.71522045135498 C 4.276248455047607 8.232280731201172 4.523598194122314 8.86421012878418 4.785468101501465 9.53325080871582 C 5.007558345794678 10.10065078735352 5.237208366394043 10.68738079071045 5.833418369293213 11.8929500579834 C 6.395068168640137 13.02867031097412 6.983148097991943 14.18130016326904 7.478878021240234 14.91882038116455 C 8.023797988891602 15.72952079772949 8.28290843963623 15.77263069152832 8.328948020935059 15.77304077148438 L 8.330227851867676 16.27304077148438 M 8.330229759216309 16.27304458618164 C 8.328482627868652 16.27304267883301 8.326638221740723 16.27303504943848 8.324898719787598 16.27301979064941 C 7.554498195648193 16.26621055603027 6.712558269500732 14.79858016967773 5.385228157043457 12.11460018157959 C 4.057888031005859 9.430630683898926 4.490588188171387 9.693740844726562 3.024278163909912 6.950950622558594 C 1.557968258857727 4.208160400390625 2.005518198013306 4.825960636138916 1.251758217811584 3.506810426712036 C 0.4979982674121857 2.187650442123413 -0.3715917468070984 0.5578204393386841 0.1675582528114319 0.1298304200172424 C 0.7001499533653259 -0.2929612696170807 3.470160484313965 0.4521705508232117 6.790488243103027 0.4521525800228119 C 6.831312656402588 0.4521523416042328 6.872340679168701 0.4520394802093506 6.913328170776367 0.4518104195594788 C 10.28792381286621 0.4329406321048737 12.86541843414307 0.5872403979301453 14.07581806182861 0.6373804211616516 C 14.70406723022461 0.6634054183959961 16.0139331817627 0.5197402834892273 17.20709228515625 0.5197402834892273 C 18.31270027160645 0.5197402834892273 19.3181324005127 0.6431651711463928 19.58734893798828 1.139320373535156 C 20.14710807800293 2.1709303855896 16.98691749572754 5.328490257263184 15.13064861297607 8.491830825805664 C 13.27436828613281 11.65517044067383 12.64538860321045 12.15108013153076 11.57976818084717 13.47947025299072 C 10.5165548324585 14.80487060546875 9.101816177368164 16.27317237854004 8.330229759216309 16.27304458618164 Z" stroke="none" fill="#000"/></g><path d="M8.325,0c.77-.007,2.189,1.465,3.255,2.794a28.127,28.127,0,0,1,3.551,4.988c1.856,3.163,5.016,6.321,4.457,7.353s-4.3.452-5.512.5-3.788.2-7.162.186-6.207.75-6.746.322.33-2.058,1.084-3.377.306-.7,1.773-3.444,1.034-2.48,2.361-5.164S7.554.007,8.325,0Z" transform="matrix(-0.899, 0.438, -0.438, -0.899, 35.675, 14.626)"/></g><g transform="translate(66.888 0) rotate(1)" fill="none"><path d="M.537.493C.767.094,1.761,0,2.589,0S3.794.039,3.961.5s-.02,2.3-.036,6.8c-.04,4.291-.127,4.446-.145,7.3s.331,3.833.072,4.126a2.276,2.276,0,0,1-1.658.433c-.829,0-1.35.254-1.657-.433S.388,17.052.23,14.671c-.05-1.508-.23-3.3-.23-5.1C0,6.645.138,5.54.272,3.27S.308.892.537.493Z" stroke="none"/><path d="M 2.589299440383911 0.5000019073486328 C 1.465040922164917 0.5000019073486328 1.041106462478638 0.6776943206787109 0.9660458564758301 0.7505531311035156 C 0.8837778568267822 0.8945426940917969 0.8762571811676025 0.9370670318603516 0.8483195304870605 1.680681228637695 C 0.8343794345855713 2.051490783691406 0.8152995109558105 2.559350967407227 0.7714893817901611 3.299520492553711 C 0.7390694618225098 3.847131729125977 0.7068495750427246 4.321281433105469 0.6756894588470459 4.779821395874023 C 0.577519416809082 6.22429084777832 0.4999794960021973 7.36522102355957 0.4999995231628418 9.572591781616211 C 0.5000095367431641 10.66445159912109 0.5668294429779053 11.74684143066406 0.6314394474029541 12.79358100891113 C 0.6717193126678467 13.44602012634277 0.7097713947296143 14.06247711181641 0.7293050289154053 14.6458854675293 C 0.7892730236053467 15.55327415466309 0.8040752410888672 16.25813102722168 0.8159694671630859 16.82488059997559 C 0.8339295387268066 17.68011093139648 0.8447694778442383 18.19633102416992 0.9942495822906494 18.53130149841309 C 1.067439556121826 18.69532203674316 1.098629474639893 18.714111328125 1.297649383544922 18.714111328125 C 1.391639471054077 18.714111328125 1.502029418945312 18.70559120178223 1.629839420318604 18.69572067260742 C 1.795709371566772 18.68291091918945 1.983699560165405 18.66839218139648 2.19430947303772 18.66839218139648 C 3.043164253234863 18.66839218139648 3.347695827484131 18.50944328308105 3.443996429443359 18.43457221984863 C 3.459793329238892 18.30050849914551 3.431371927261353 17.95686721801758 3.403799533843994 17.62351226806641 C 3.350959539413452 16.98448181152344 3.271089553833008 16.01876068115234 3.280139446258545 14.60555076599121 C 3.288689613342285 13.27147102355957 3.311909437179565 12.53109169006348 3.338789463043213 11.67380142211914 C 3.369389533996582 10.69780158996582 3.404079437255859 9.591570854187012 3.425379514694214 7.303071022033691 C 3.432059526443481 5.339781761169434 3.471079349517822 3.885741233825684 3.499579429626465 2.824041366577148 C 3.529109477996826 1.723501205444336 3.552439451217651 0.8542308807373047 3.490579605102539 0.6701221466064453 C 3.45233941078186 0.5640411376953125 3.429259538650513 0.5000114440917969 2.589429378509521 0.5000019073486328 L 2.589299440383911 0.5000019073486328 M 2.589297771453857 1.9073486328125e-06 C 2.589348316192627 1.9073486328125e-06 2.589378833770752 1.9073486328125e-06 2.589429378509521 1.9073486328125e-06 C 3.418059349060059 1.1444091796875e-05 3.794459581375122 0.03872108459472656 3.960949420928955 0.5005607604980469 C 4.127429485321045 0.9623908996582031 3.940709590911865 2.79945182800293 3.925379514694214 7.304771423339844 C 3.885459423065186 11.59553146362305 3.798439502716064 11.75116157531738 3.780129432678223 14.60875129699707 C 3.761829376220703 17.46632194519043 4.110989570617676 18.44205093383789 3.85215950012207 18.73508071899414 C 3.593345165252686 19.02810287475586 3.022855997085571 19.16839218139648 2.194308280944824 19.16839218139648 C 1.842179775238037 19.16849899291992 1.54584789276123 19.21410751342773 1.297648668289185 19.21410751342773 C 0.961461067199707 19.21410751342773 0.7139842510223389 19.13020324707031 0.537649393081665 18.73505210876465 C 0.231149435043335 18.0482120513916 0.3877193927764893 17.05190086364746 0.2298595905303955 14.67071151733398 C 0.1797795295715332 13.1626615524292 1.955032348632812e-05 11.36945152282715 -4.76837158203125e-07 9.572601318359375 C -3.0517578125e-05 6.644731521606445 0.1379995346069336 5.539911270141602 0.2723593711853027 3.269981384277344 C 0.406719446182251 1.000051498413086 0.3082895278930664 0.8915214538574219 0.5374295711517334 0.4928817749023438 C 0.7665655612945557 0.09427642822265625 1.760698080062866 1.9073486328125e-06 2.589297771453857 1.9073486328125e-06 Z" stroke="none" fill="#000"/></g></g></g><path d="M-7543-9995v-50h12l0-6a17.951,17.951,0,0,1,1.416-7.007,18.022,18.022,0,0,1,3.856-5.724,18.057,18.057,0,0,1,5.721-3.856A17.961,17.961,0,0,1-7513-10069a17.935,17.935,0,0,1,7.007,1.415,18.045,18.045,0,0,1,5.721,3.856,17.932,17.932,0,0,1,3.856,5.724A17.869,17.869,0,0,1-7495-10051v6h12v50Zm24-28.5a6,6,0,0,0,4,5.656v8.341h4v-8.339a6.012,6.012,0,0,0,4-5.658,6.007,6.007,0,0,0-6-6A6.008,6.008,0,0,0-7519-10023.5Zm16-21.5v-5.974a10.013,10.013,0,0,0-10-10,10.013,10.013,0,0,0-10,10v5.974Z" transform="translate(7743 10178)"/></g></g></svg>