<svg width="24" height="24" viewBox="0 0 24 24" fill="none" xmlns="http://www.w3.org/2000/svg">
<path fill-rule="evenodd" clip-rule="evenodd" d="M23.76 9.59C23.6 8.82 23.37 8.06 23.06 7.33C22.76 6.62 22.39 5.93 21.95 5.29C21.52 4.65 21.03 4.06 20.48 3.52C19.94 2.98 19.34 2.48 18.71 2.05C18.07 1.62 17.38 1.24 16.67 0.94C15.94 0.63 15.19 0.4 14.41 0.24C13.62 0.08 12.81 0 11.99 0C11.17 0 10.36 0.08 9.57 0.24C8.8 0.4 8.04 0.63 7.32 0.94C6.61 1.24 5.92 1.61 5.28 2.05C4.64 2.48 4.05 2.97 3.51 3.52C2.97 4.06 2.48 4.66 2.05 5.29C1.62 5.93 1.24 6.62 0.94 7.33C0.63 8.06 0.4 8.81 0.24 9.59C0.08 10.38 0 11.19 0 12.01C0 12.83 0.08 13.64 0.24 14.43C0.4 15.2 0.63 15.96 0.94 16.68C1.24 17.39 1.61 18.08 2.05 18.72C2.48 19.36 2.97 19.95 3.51 20.49C4.05 21.03 4.65 21.52 5.28 21.95C5.92 22.38 6.61 22.76 7.32 23.06C8.04 23.37 8.8 23.6 9.57 23.76C10.36 23.92 11.17 24 11.99 24C12.81 24 13.62 23.92 14.41 23.76C15.18 23.6 15.94 23.37 16.67 23.06C17.38 22.76 18.07 22.39 18.71 21.95C19.35 21.52 19.94 21.03 20.48 20.49C21.02 19.95 21.52 19.35 21.95 18.72C22.38 18.08 22.76 17.39 23.06 16.68C23.37 15.96 23.6 15.2 23.76 14.43C23.92 13.64 24 12.83 24 12.01C24 11.19 23.92 10.38 23.76 9.59ZM22.25 11.9C22.1 11.87 18.63 11.12 15.11 11.56C15.04 11.38 14.96 11.21 14.89 11.03C14.68 10.53 14.45 10.03 14.21 9.54C18.26 7.89 19.9 5.51 19.92 5.48C21.36 7.22 22.23 9.45 22.25 11.89V11.9ZM18.77 4.32C18.77 4.32 17.28 6.58 13.42 8.03C11.67 4.81 9.74 2.25 9.59 2.05C10.36 1.86 11.17 1.76 12.01 1.76C14.61 1.76 16.97 2.73 18.78 4.32H18.77ZM7.63 2.74C7.77 2.92 9.66 5.49 11.44 8.65C6.52 9.96 2.25 9.91 1.98 9.9C2.65 6.73 4.78 4.09 7.64 2.74H7.63ZM1.75 12V11.68C1.93 11.68 6.99 11.8 12.27 10.22C12.56 10.79 12.84 11.38 13.1 11.96C12.96 12 12.83 12.04 12.7 12.08C7.17 13.87 4.36 18.84 4.36 18.84C2.73 17.02 1.73 14.62 1.73 11.99H1.75V12ZM12 22.26C9.52 22.26 7.24 21.38 5.47 19.91C5.6 20.02 5.7 20.09 5.7 20.09C5.7 20.09 7.66 15.81 13.74 13.69C13.76 13.69 13.79 13.67 13.81 13.67C15.25 17.42 15.85 20.56 16 21.45C14.77 21.97 13.42 22.26 12 22.26ZM17.73 20.51C17.63 19.89 17.08 16.88 15.74 13.19C19.05 12.66 21.92 13.57 22.13 13.64C21.67 16.5 20.04 18.96 17.74 20.51H17.73Z" fill="white"/>
</svg>
