<svg xmlns="http://www.w3.org/2000/svg" width="54.186" height="53.181" viewBox="0 0 54.186 53.181">
  <g id="number_img_6.svg" transform="translate(-7939 -10146.855)">
    <path id="パス_113" data-name="パス 113" d="M29.418,0c10.445,0,13.076,4.779,15.9,13.622.91,2.852,5.524,7.123,5.524,10.717,0,4.843-.34,9.944-2.769,13.922-4.386,7.187-13.456,11.494-22.651,11.495-10.684,0-18.411-2.012-22.23-11.494C2.067,35.476,0,27.695,0,24.34,0,10.3,15.379,0,29.418,0Z" transform="translate(7993.186 10196.49) rotate(176)"/>
    <path id="パス_119" data-name="パス 119" d="M1.067-9.5A6.205,6.205,0,0,1,3.8-8.921,4.489,4.489,0,0,1,5.687-7.26a4.55,4.55,0,0,1,.682,2.486,4.662,4.662,0,0,1-.748,2.629A4.95,4.95,0,0,1,3.6-.4,6.494,6.494,0,0,1,.737.22,6.216,6.216,0,0,1-4.18-1.76,8.307,8.307,0,0,1-5.929-7.436a9.583,9.583,0,0,1,.946-4.433,6.558,6.558,0,0,1,2.651-2.794,7.932,7.932,0,0,1,3.949-.957,9.468,9.468,0,0,1,2.233.253,6.072,6.072,0,0,1,1.815.737L4.609-12.474a5.251,5.251,0,0,0-2.926-.748,4.486,4.486,0,0,0-3.476,1.364A5.618,5.618,0,0,0-3.047-7.92V-7.9A4.276,4.276,0,0,1-1.309-9.1,6.564,6.564,0,0,1,1.067-9.5ZM.583-2.024a3.234,3.234,0,0,0,2.178-.715,2.379,2.379,0,0,0,.836-1.9,2.371,2.371,0,0,0-.836-1.914,3.371,3.371,0,0,0-2.244-.7,3.334,3.334,0,0,0-2.255.748A2.389,2.389,0,0,0-2.607-4.62,2.359,2.359,0,0,0-1.76-2.761,3.451,3.451,0,0,0,.583-2.024Z" transform="translate(7966.006 10180.855)" fill="#fff"/>
  </g>
</svg>
