<svg xmlns="http://www.w3.org/2000/svg" width="54.186" height="53.181" viewBox="0 0 54.186 53.181">
  <g id="number_img_5.svg" transform="translate(-7939 -10146.855)">
    <path id="パス_113" data-name="パス 113" d="M29.418,0c10.445,0,13.076,4.779,15.9,13.622.91,2.852,5.524,7.123,5.524,10.717,0,4.843-.34,9.944-2.769,13.922-4.386,7.187-13.456,11.494-22.651,11.495-10.684,0-18.411-2.012-22.23-11.494C2.067,35.476,0,27.695,0,24.34,0,10.3,15.379,0,29.418,0Z" transform="translate(7993.186 10196.49) rotate(176)"/>
    <path id="パス_118" data-name="パス 118" d="M-.638-9.438A7.585,7.585,0,0,1,4.18-8.173,4.194,4.194,0,0,1,5.742-4.73,4.734,4.734,0,0,1,5.06-2.222,4.715,4.715,0,0,1,3.014-.44,7.693,7.693,0,0,1-.352.22a10.8,10.8,0,0,1-3.19-.473,7.848,7.848,0,0,1-2.6-1.309l1.21-2.222A6.5,6.5,0,0,0-2.871-2.673,7.648,7.648,0,0,0-.4-2.266a4.011,4.011,0,0,0,2.387-.627A2.013,2.013,0,0,0,2.86-4.62a2,2,0,0,0-.935-1.793,6.2,6.2,0,0,0-3.2-.605H-4.994L-4.2-15.4H4.84V-13H-1.782l-.33,3.564Z" transform="translate(7966.006 10180.855)" fill="#fff"/>
  </g>
</svg>
